# xmcd
#
# Track frame offsets: 
#        150
#        99902
#        152240
#
# Disc length: 2745 seconds
#
# Revision: 2
# Processed by: cddbd v1.5.2PL0 Copyright (c) Steve Scherf et al.
# Submitted via: ExactAudioCopy v1.0b4
#
DISCID=180ab703
DTITLE=Kohsuke Mine Quartet - Solid
DYEAR=1975
DGENRE=Jazz
TTITLE0=You Make Me So Sad
TTITLE1=Expectation
TTITLE2=Search For Peace
EXTD=Sean P.
EXTT0=
EXTT1=
EXTT2=
PLAYORDER=
